<svg xmlns="http://www.w3.org/2000/svg" xmlns:xlink="http://www.w3.org/1999/xlink" viewBox="0 0 216 216"><defs><style>.cls-1,.cls-10,.cls-11,.cls-12,.cls-13,.cls-20,.cls-21,.cls-4{fill:#fff;}.cls-1,.cls-10,.cls-11,.cls-12,.cls-13,.cls-14,.cls-19,.cls-20,.cls-21,.cls-23,.cls-24,.cls-3,.cls-6,.cls-8{stroke:#231f20;}.cls-1,.cls-10,.cls-11,.cls-12,.cls-13,.cls-16,.cls-17,.cls-18,.cls-23,.cls-3,.cls-6,.cls-8{stroke-miterlimit:10;}.cls-1,.cls-10,.cls-12,.cls-14,.cls-20,.cls-3,.cls-6{stroke-width:3px;}.cls-14,.cls-19,.cls-2,.cls-23,.cls-24,.cls-3,.cls-6,.cls-8{fill:none;}.cls-5{clip-path:url(#clip-path);}.cls-12,.cls-13,.cls-14,.cls-24,.cls-6,.cls-8{stroke-linecap:round;}.cls-7{fill:#231f20;}.cls-11,.cls-13,.cls-16,.cls-17,.cls-18,.cls-19,.cls-21,.cls-23,.cls-24,.cls-8{stroke-width:1.5px;}.cls-9{clip-path:url(#clip-path-2);}.cls-10{opacity:0.98;}.cls-14,.cls-19,.cls-20,.cls-21,.cls-24{stroke-linejoin:round;}.cls-15{clip-path:url(#clip-path-3);}.cls-16{fill:#d86259;stroke:#ce3a2c;}.cls-17{fill:#a977b4;stroke:#9157a3;}.cls-18{fill:#5dae49;stroke:#349a46;}.cls-22{clip-path:url(#clip-path-4);}</style><clipPath id="clip-path"><polygon class="cls-1" points="108 9.57 67.52 18.17 34.04 42.49 13.35 78.33 9.03 119.49 21.81 158.85 49.5 189.6 87.31 206.43 128.69 206.43 166.5 189.6 194.19 158.85 206.97 119.49 202.65 78.33 181.96 42.49 148.48 18.17 108 9.57"/></clipPath><clipPath id="clip-path-2"><circle class="cls-2" cx="108.07" cy="108.12" r="72.25"/></clipPath><clipPath id="clip-path-3"><circle class="cls-3" cx="108.07" cy="108.12" r="72.25"/></clipPath><clipPath id="clip-path-4"><path class="cls-2" d="M119.59,52l-3.93,14.79,9.87,19.75c-.41.16-17.48,10.29-17.48,10.29L94.41,85.47l1.51-7,4.17-38-.1,0,9.54,1.11,10,10.46Z"/></clipPath></defs><title>Infrastructure Models</title><g id="Layer_5" data-name="Layer 5"><polygon class="cls-4" points="108 9.57 67.52 18.17 34.04 42.49 13.35 78.33 9.03 119.49 21.81 158.85 49.5 189.6 87.31 206.43 128.69 206.43 166.5 189.6 194.19 158.85 206.97 119.49 202.65 78.33 181.96 42.49 148.48 18.17 108 9.57"/><g class="cls-5"><line class="cls-6" x1="108" y1="-0.35" x2="108" y2="27.26"/><line class="cls-6" x1="85.47" y1="2.02" x2="91.21" y2="29.03"/><line class="cls-6" x1="63.93" y1="9.02" x2="75.16" y2="34.24"/><line class="cls-6" x1="44.31" y1="20.34" x2="60.54" y2="42.68"/><line class="cls-6" x1="27.48" y1="35.5" x2="48" y2="53.98"/><line class="cls-6" x1="14.17" y1="53.83" x2="38.08" y2="67.63"/><line class="cls-6" x1="4.95" y1="74.52" x2="31.21" y2="83.05"/><line class="cls-6" x1="0.24" y1="96.67" x2="27.7" y2="99.56"/><line class="cls-6" x1="0.24" y1="119.33" x2="27.7" y2="116.44"/><line class="cls-6" x1="4.95" y1="141.48" x2="31.21" y2="132.95"/><line class="cls-6" x1="14.17" y1="162.17" x2="38.08" y2="148.37"/><line class="cls-6" x1="27.48" y1="180.5" x2="48" y2="162.02"/><line class="cls-6" x1="44.31" y1="195.66" x2="60.54" y2="173.32"/><line class="cls-6" x1="63.93" y1="206.98" x2="75.16" y2="181.76"/><line class="cls-6" x1="85.47" y1="213.98" x2="91.21" y2="186.97"/><line class="cls-6" x1="108" y1="216.35" x2="108" y2="188.74"/><line class="cls-6" x1="130.53" y1="213.98" x2="124.79" y2="186.97"/><line class="cls-6" x1="152.07" y1="206.98" x2="140.84" y2="181.76"/><line class="cls-6" x1="171.69" y1="195.66" x2="155.46" y2="173.32"/><line class="cls-6" x1="188.52" y1="180.5" x2="168" y2="162.02"/><line class="cls-6" x1="201.83" y1="162.17" x2="177.92" y2="148.37"/><line class="cls-6" x1="211.05" y1="141.48" x2="184.79" y2="132.95"/><line class="cls-6" x1="215.76" y1="119.33" x2="188.3" y2="116.44"/><line class="cls-6" x1="215.76" y1="96.67" x2="188.3" y2="99.56"/><line class="cls-6" x1="211.05" y1="74.52" x2="184.79" y2="83.05"/><line class="cls-6" x1="201.83" y1="53.83" x2="177.92" y2="67.63"/><line class="cls-6" x1="188.52" y1="35.5" x2="168" y2="53.98"/><line class="cls-6" x1="171.69" y1="20.34" x2="155.46" y2="42.68"/><line class="cls-6" x1="152.07" y1="9.02" x2="140.84" y2="34.24"/><line class="cls-6" x1="130.53" y1="2.02" x2="124.79" y2="29.03"/><circle class="cls-7" cx="108" cy="108" r="1.68"/><line class="cls-8" x1="96.94" y1="0.22" x2="99.76" y2="27.68"/><line class="cls-8" x1="74.78" y1="4.87" x2="83.24" y2="31.15"/><line class="cls-8" x1="54.06" y1="14.03" x2="67.81" y2="37.98"/><line class="cls-8" x1="35.7" y1="27.3" x2="54.13" y2="47.87"/><line class="cls-8" x1="20.5" y1="44.1" x2="42.8" y2="60.38"/><line class="cls-8" x1="9.13" y1="63.68" x2="34.32" y2="74.98"/><line class="cls-8" x1="2.07" y1="85.21" x2="29.07" y2="91.02"/><line class="cls-8" x1="-0.35" y1="107.73" x2="27.26" y2="107.8"/><line class="cls-8" x1="1.96" y1="130.26" x2="28.98" y2="124.59"/><line class="cls-8" x1="8.91" y1="151.82" x2="34.16" y2="140.66"/><line class="cls-8" x1="20.19" y1="171.47" x2="42.56" y2="155.29"/><line class="cls-8" x1="35.3" y1="188.34" x2="53.83" y2="167.87"/><line class="cls-8" x1="53.59" y1="201.7" x2="67.46" y2="177.82"/><line class="cls-8" x1="74.26" y1="210.96" x2="82.86" y2="184.72"/><line class="cls-8" x1="96.41" y1="215.73" x2="99.36" y2="188.27"/><line class="cls-8" x1="119.06" y1="215.78" x2="116.24" y2="188.32"/><line class="cls-8" x1="141.22" y1="211.13" x2="132.76" y2="184.85"/><line class="cls-8" x1="161.94" y1="201.97" x2="148.19" y2="178.02"/><line class="cls-8" x1="180.3" y1="188.7" x2="161.87" y2="168.13"/><line class="cls-8" x1="195.5" y1="171.9" x2="173.2" y2="155.62"/><line class="cls-8" x1="206.87" y1="152.32" x2="181.68" y2="141.02"/><line class="cls-8" x1="213.93" y1="130.79" x2="186.93" y2="124.98"/><line class="cls-8" x1="216.35" y1="108.27" x2="188.74" y2="108.2"/><line class="cls-8" x1="214.04" y1="85.74" x2="187.02" y2="91.41"/><line class="cls-8" x1="207.09" y1="64.18" x2="181.84" y2="75.34"/><line class="cls-8" x1="195.81" y1="44.53" x2="173.44" y2="60.71"/><line class="cls-8" x1="180.7" y1="27.66" x2="162.17" y2="48.13"/><line class="cls-8" x1="162.41" y1="14.3" x2="148.54" y2="38.18"/><line class="cls-8" x1="141.74" y1="5.04" x2="133.14" y2="31.28"/><line class="cls-8" x1="119.59" y1="0.27" x2="116.64" y2="27.73"/><circle class="cls-7" cx="108" cy="108" r="1.68"/></g><polygon class="cls-3" points="108 9.57 67.52 18.17 34.04 42.49 13.35 78.33 9.03 119.49 21.81 158.85 49.5 189.6 87.31 206.43 128.69 206.43 166.5 189.6 194.19 158.85 206.97 119.49 202.65 78.33 181.96 42.49 148.48 18.17 108 9.57"/><circle class="cls-1" cx="108.33" cy="108.58" r="90.75"/><g class="cls-9"><path class="cls-10" d="M80,128c0,2.09-3,3.79-6.78,3.8-3.62,0-6.61-1.55-6.89-3.52a2.11,2.11,0,0,1,0-.26v-3.12a1.48,1.48,0,0,1,0-.21c.19-2,3.13-3.54,6.76-3.55,3.78,0,6.88,1.69,6.92,3.78Z"/><path class="cls-11" d="M78,110.78a5,5,0,0,1,.19,2.31v15.1c0,1.5-2.16,2.72-4.88,2.72s-4.94-1.21-5-2.71h0V117.38l-1.28-.84L23.58,91.44l10.9-6.19L72,106.92l3.84,2.22A7.5,7.5,0,0,1,78,110.78Z"/><path class="cls-7" d="M53.12,93.72h0Z"/><path class="cls-6" d="M79.17,120.57a2.66,2.66,0,0,1,.86,1.8c0,2.09-3,3.79-6.78,3.8s-6.88-1.69-6.91-3.78a2.79,2.79,0,0,1,1.25-2.22"/><path class="cls-12" d="M58,114.16l-6.46-3.67c-2.07-1.12-2-5,.06-8.72s5.46-5.77,7.53-4.64l8,4.53"/><line class="cls-12" x1="58.29" y1="114.21" x2="55.88" y2="112.84"/><path class="cls-6" d="M70.06,105a3.18,3.18,0,0,0-1.48-2.58c-2.06-1.13-5.43,1-7.53,4.64s-2.12,7.6-.06,8.72a3.31,3.31,0,0,0,2.95-.09"/><path class="cls-11" d="M62.88,85.31a2.85,2.85,0,0,0,1.82.84c1.24.15,1.75,0,4.41-.47s4.48-1.17,6-.76a2.85,2.85,0,0,1,2,2.86,2.9,2.9,0,0,1-2.2,2.93c-1.49.41-3.3-.32-6-.77s-3.17-.62-4.41-.47S63,91.14,62.85,91.61s0,3.83,0,3.83c0,.53-.82,1-1.83,1s-1.83-.43-1.83-1c0,0,.06-3.31,0-3.72s-.72-2.1-2-2.25-1.75,0-4.41.47-4.49,1.18-6,.77a2.9,2.9,0,0,1-2.2-2.93,2.85,2.85,0,0,1,2-2.86c1.49-.41,3.3.32,6,.76s3.17.62,4.41.47a2.85,2.85,0,0,0,1.82-.84l.12-.09a2.86,2.86,0,0,1,1.88-.71,2.81,2.81,0,0,1,1.84.69Z"/><polyline class="cls-13" points="58.65 98.92 58.65 89.77 63.12 89.77 63.12 101.46"/><circle class="cls-1" cx="60.89" cy="87.62" r="3.81"/><line class="cls-14" x1="160.25" y1="55.93" x2="55.88" y2="160.31"/><line class="cls-14" x1="161.76" y1="161.81" x2="54.37" y2="54.43"/></g><path class="cls-7" d="M30.66,74.43l.84-1.88,7.31,3.25L38,77.69Z"/><path class="cls-7" d="M36.6,69.39l4.21,2.37-1,1.8-7-3.93,1-1.85,5.6-.56-4-2.26,1-1.81,7,3.93-1,1.73Z"/><path class="cls-7" d="M38.34,60.35l3.45-4.75,1.41,1L41,59.7l1.08.78,2.19-3,1.42,1-2.19,3L46,63.39l-1.22,1.67Z"/><path class="cls-7" d="M49.68,54.56l-.71.78,2,1.82-1.39,1.53-5.91-5.4,2.7-3a2.58,2.58,0,0,1,3.84-.26,2.42,2.42,0,0,1,.7,2.8l3.27.77-1.59,1.75Zm-2.23-2.82-1.1,1.2,1.33,1.21,1.1-1.2a.92.92,0,0,0,0-1.34A.91.91,0,0,0,47.45,51.74Z"/><path class="cls-7" d="M58.75,47.93,56.24,50.1l.48,1.19L55,52.76l-3-8L54,43l7.52,4.07-1.69,1.46Zm-3.25.51L57.2,47l-3-1.72Z"/><path class="cls-7" d="M61.72,43.74a3.66,3.66,0,0,0,2.71-.57c.58-.4.77-.9.55-1.21s-.78-.24-1.59.1c-1.24.52-3,1.29-4-.28-.76-1.1-.48-2.71,1.22-3.87A4.85,4.85,0,0,1,63.9,37l-.1,1.85a3.78,3.78,0,0,0-2.33.59c-.56.39-.62.77-.43,1.05s.73.19,1.56-.17c1.24-.52,3-1.23,4,.26.9,1.33.53,2.88-1.25,4.09a4.85,4.85,0,0,1-3.64,1Z"/><path class="cls-7" d="M68.27,35.41l-2,1.06-.86-1.58,5.76-3.1.85,1.58-2,1.06L73,39.89l-1.82,1Z"/><path class="cls-7" d="M78.67,34.3l-1,.4,1,2.51L76.79,38l-3-7.42,3.71-1.5a2.58,2.58,0,0,1,3.58,1.43,2.43,2.43,0,0,1-.58,2.82l2.61,2.11-2.19.89Zm-.8-3.5-1.51.61L77,33.08l1.52-.61a.91.91,0,1,0-.68-1.67Z"/><path class="cls-7" d="M83,27l2-.54L86.26,31a1.61,1.61,0,1,0,3.12-.83l-1.21-4.53,2-.54,1.22,4.59c.51,1.93-.23,3.58-2.71,4.24s-4-.42-4.47-2.32Z"/><path class="cls-7" d="M93.66,28.5a4.06,4.06,0,0,1,3.67-4.67,3.72,3.72,0,0,1,3.81,1.65l-1.65,1.07a1.9,1.9,0,0,0-1.91-.91,2.32,2.32,0,0,0,.62,4.58,1.92,1.92,0,0,0,1.6-1.39l1.88.59A3.75,3.75,0,0,1,98.45,32,4.08,4.08,0,0,1,93.66,28.5Z"/><path class="cls-7" d="M105.46,25.08l-2.24.06,0-1.8,6.53-.15,0,1.8-2.23.05.15,6.2-2.07,0Z"/><path class="cls-7" d="M112.6,23.25l2.09.2-.43,4.67a1.61,1.61,0,1,0,3.21.29l.43-4.67,2.09.19-.43,4.74c-.18,2-1.45,3.27-4,3S112,30,112.16,28Z"/><path class="cls-7" d="M125.26,30.31l-1-.22-.58,2.65-2-.44,1.7-7.82,3.92.85a2.57,2.57,0,0,1,2.15,3.19,2.42,2.42,0,0,1-2.07,2l1,3.22-2.31-.5ZM126.57,27,125,26.62l-.38,1.76,1.59.34a.93.93,0,0,0,1.17-.66A.94.94,0,0,0,126.57,27Z"/><path class="cls-7" d="M132.88,26.77l5.56,1.88-.56,1.64-3.6-1.21-.43,1.26,3.53,1.19-.56,1.66L133.29,32l-.46,1.36,3.6,1.22-.55,1.65-5.56-1.88Z"/><path class="cls-7" d="M152.81,38.8l-4.52,3.59-.78-.47,1.05-5.67-2.78,4.63L144,39.81,148.14,33l2.45,1.47-.9,4.75,3.77-3,2.46,1.47-4.12,6.86L150,43.43Z"/><path class="cls-7" d="M161.86,42a4.15,4.15,0,1,1-5.94.52A4.07,4.07,0,0,1,161.86,42Zm-1.15,1.42a2.33,2.33,0,1,0,.22,3.17A2.17,2.17,0,0,0,160.71,43.44Z"/><path class="cls-7" d="M167.27,46.89l2.32,2.44c1.73,1.83,1.89,4.18.09,5.89s-4.16,1.45-5.89-.37l-2.32-2.44Zm-2.18,6.72a2.13,2.13,0,0,0,3.13.08,2,2,0,0,0,.07-3.11l-.9-.95-3.19,3Z"/><path class="cls-7" d="M174.4,54.74l3.53,4.68-1.39,1-2.28-3-1.07.8,2.24,3L174,62.26l-2.24-3-1.15.86,2.29,3-1.39,1L168,59.55Z"/><path class="cls-7" d="M179.61,61.94l1.07,1.77-5.3,3.22L177,69.67l-1.53.94-2.74-4.51Z"/><path class="cls-7" d="M179.12,71.74a3.62,3.62,0,0,0,.15,2.76c.3.64.75.9,1.1.73s.35-.73.15-1.58c-.33-1.31-.81-3.12.9-3.93,1.21-.58,2.75,0,3.63,1.81a4.91,4.91,0,0,1,.39,3.41l-1.82-.39a3.74,3.74,0,0,0-.22-2.39c-.29-.61-.66-.73-1-.59s-.3.69-.07,1.56c.32,1.31.75,3.13-.88,3.9-1.45.69-2.93.08-3.85-1.86a4.9,4.9,0,0,1-.37-3.75Z"/><g class="cls-15"><line class="cls-14" x1="160.25" y1="55.93" x2="55.88" y2="160.31"/><line class="cls-14" x1="161.76" y1="161.81" x2="54.37" y2="54.43"/></g><circle class="cls-3" cx="108.07" cy="108.12" r="72.25"/><circle class="cls-1" cx="108.07" cy="108.12" r="15.24"/><circle class="cls-16" cx="101.96" cy="112.15" r="4.38"/><circle class="cls-17" cx="113.96" cy="112.15" r="4.38"/><circle class="cls-18" cx="107.96" cy="102.13" r="4.38"/><polygon class="cls-19" points="157.22 156.7 141.92 141.73 142.73 112.72 157.18 112.72 157.22 156.7"/><ellipse class="cls-1" cx="150.05" cy="113.5" rx="6.74" ry="4.37"/><path class="cls-20" d="M158.05,121.21V136H158c-.25,2.85-3.92,5.09-8.37,5.06s-7.92-2.27-8.17-5.06h-.07V121.21h.06c0,2.94,3.63,5.33,8.18,5.37s8.33-2.33,8.39-5.3v-.07Z"/><path class="cls-21" d="M160.9,99.76C161.35,108.31,150,112,150,112s-10.86-3.69-10.86-12.25c0-2.76,2.11-7.65,2.11-7.65s2,4.49,4,4.43c1.13,0,2.73-1.58,3.79-4.88,1.29-4,1.22-10,2.91-12.52,0,0-.19,3.9,2.72,9.48C156.49,92.08,160.6,94,160.9,99.76Z"/><path class="cls-7" d="M154.94,104.05c.2,3.91-5,5.59-5,5.59s-5-1.69-5-5.61a12.41,12.41,0,0,1,1-3.5s.91,2.06,1.81,2c.52,0,1.25-.73,1.74-2.24.59-1.81.56-4.55,1.33-5.72a9.31,9.31,0,0,0,1.24,4.33C152.92,100.53,154.8,101.42,154.94,104.05Z"/><path class="cls-7" d="M45.57,153.74l1,1.3-3.91,3,1.54,2-1.13.85-2.53-3.33Z"/><path class="cls-7" d="M47.69,164.79l-1.76-2-.93.4-1.19-1.33,6.31-2.44L51.49,161l-3.12,6-1.18-1.32Zm-.45-2.56,1.18,1.32,1.32-2.38Z"/><path class="cls-7" d="M53.32,166.43l-2.6,2.81-1.2-1.11,4.29-4.65,1.24,1.15L54.47,169l2.47-2.67,1.21,1.12-4.3,4.64-1.16-1.07Z"/><path class="cls-7" d="M59.48,168.57l1.3,1-3,3.87,2,1.57-.87,1.12-3.31-2.57Z"/><path class="cls-7" d="M163.93,169.92l-2,1.74.39.93L161,173.77l-2.38-6.34,1.55-1.35,6,3.18-1.34,1.17Zm-2.56.42,1.33-1.17-2.37-1.35Z"/><path class="cls-7" d="M165.64,164.31l2.78,2.63-1.12,1.18-4.6-4.34,1.15-1.22,4.42.63-2.65-2.5,1.13-1.2,4.6,4.35L170.27,165Z"/><path class="cls-7" d="M171.4,160.47a2.88,2.88,0,0,0,1.91-1.08c.35-.44.38-.85.14-1s-.65,0-1.18.45c-.81.69-1.93,1.68-3.1.75-.84-.66-1-1.94,0-3.21a3.86,3.86,0,0,1,2.28-1.48l.37,1.43a2.88,2.88,0,0,0-1.62,1c-.34.43-.3.73-.08.9s.59,0,1.13-.5c.82-.69,2-1.63,3.08-.75s1.08,2,0,3.39a3.83,3.83,0,0,1-2.53,1.58Z"/><path class="cls-7" d="M171.71,153.12l.93-1.35,5.2,3.6-.93,1.35Z"/><polyline class="cls-19" points="109.29 41.95 108.33 67.78 108.08 90.88"/><polygon class="cls-19" points="118.19 66.04 108.24 55.58 98.7 54.47 118.19 66.04"/><polygon class="cls-19" points="119.07 59.61 109.11 49.14 99.58 48.04 119.07 59.61"/><polygon class="cls-19" points="119.59 52.02 109.63 41.56 100.09 40.46 119.59 52.02"/><line class="cls-19" x1="109.56" y1="66.74" x2="113.09" y2="79.3"/><line class="cls-19" x1="107.33" y1="66.79" x2="103.6" y2="80.08"/><polyline class="cls-19" points="111.72 65.8 108.33 67.78 104.99 65.8"/><g class="cls-22"><polyline class="cls-14" points="112.23 42.13 111.56 65.81 121.45 85.14 113.2 80.18 108.13 92.03 103.75 80.46 96.1 84.65 105.27 67.01 106.29 38.95"/></g><path class="cls-23" d="M36.89,155.5A85.58,85.58,0,0,1,29,76.78"/><path class="cls-23" d="M160.54,176.24a85.5,85.5,0,0,1-99.72,3.39"/><path class="cls-23" d="M187.89,77.3a85.66,85.66,0,0,1-6.48,75.6"/><path class="cls-23" d="M40.55,153.29a81.32,81.32,0,0,1-7.56-75"/><path class="cls-23" d="M157.87,172.9a81.24,81.24,0,0,1-94.92,3"/><path class="cls-23" d="M184,79a81.32,81.32,0,0,1-6.39,72"/><path class="cls-23" d="M43.77,151a77.26,77.26,0,0,1-7.35-70.61"/><path class="cls-23" d="M155.5,169.52a77.19,77.19,0,0,1-90.34,3.06"/><path class="cls-23" d="M180,80.37a77.24,77.24,0,0,1-6,68.52"/><line class="cls-14" x1="95.87" y1="146.62" x2="120.38" y2="160.38"/><line class="cls-24" x1="98.8" y1="144.47" x2="98.83" y2="147.58"/><line class="cls-24" x1="119.43" y1="155.66" x2="119.46" y2="158.77"/><line class="cls-14" x1="91.02" y1="132.8" x2="128.27" y2="154.11"/><line class="cls-24" x1="126.81" y1="149.07" x2="126.84" y2="152.18"/><line class="cls-24" x1="123.31" y1="146.97" x2="123.35" y2="150.08"/><line class="cls-24" x1="95.97" y1="130.94" x2="96" y2="134.05"/><line class="cls-24" x1="92.78" y1="129.59" x2="92.81" y2="132.7"/><line class="cls-19" x1="94.57" y1="135.74" x2="106.17" y2="147.89"/><line class="cls-19" x1="96.76" y1="147.4" x2="108.36" y2="159.55"/><line class="cls-19" x1="123.82" y1="152.4" x2="109.4" y2="149.02"/><line class="cls-19" x1="119.66" y1="160.93" x2="107.13" y2="157.99"/><polygon class="cls-21" points="111.92 198.49 106.13 198.55 105.14 131.48 111.81 133.01 111.92 198.49"/><ellipse class="cls-11" cx="108.57" cy="131.8" rx="3.32" ry="2.15"/></g></svg>