<svg xmlns="http://www.w3.org/2000/svg" xmlns:xlink="http://www.w3.org/1999/xlink" viewBox="0 0 216 216"><defs><style>.cls-1,.cls-11,.cls-12,.cls-14,.cls-15,.cls-16,.cls-22,.cls-23,.cls-27,.cls-29,.cls-3,.cls-35{fill:#fff;}.cls-1,.cls-11,.cls-12,.cls-13,.cls-14,.cls-15,.cls-16,.cls-21,.cls-22,.cls-23,.cls-25,.cls-26,.cls-27,.cls-28,.cls-29,.cls-30,.cls-31,.cls-34,.cls-35,.cls-5,.cls-7,.cls-8,.cls-9{stroke:#231f20;}.cls-1,.cls-11,.cls-12,.cls-13,.cls-14,.cls-15,.cls-16,.cls-17,.cls-18,.cls-19,.cls-25,.cls-27,.cls-28,.cls-34,.cls-5,.cls-7,.cls-8{stroke-miterlimit:10;}.cls-1,.cls-22,.cls-28,.cls-5,.cls-8,.cls-9{stroke-width:3px;}.cls-13,.cls-2,.cls-21,.cls-25,.cls-26,.cls-28,.cls-30,.cls-31,.cls-34,.cls-5,.cls-7,.cls-8,.cls-9{fill:none;}.cls-4{clip-path:url(#clip-path);}.cls-13,.cls-14,.cls-15,.cls-26,.cls-29,.cls-34,.cls-5,.cls-7,.cls-9{stroke-linecap:round;}.cls-6{fill:#231f20;}.cls-17,.cls-18,.cls-19,.cls-21,.cls-23,.cls-25,.cls-26,.cls-27,.cls-7{stroke-width:1.5px;}.cls-21,.cls-22,.cls-23,.cls-26,.cls-29,.cls-30,.cls-31,.cls-35,.cls-9{stroke-linejoin:round;}.cls-10{clip-path:url(#clip-path-2);}.cls-11,.cls-13,.cls-14,.cls-16{stroke-width:2.77px;}.cls-11{opacity:0.98;}.cls-12,.cls-15{stroke-width:1.39px;}.cls-17{fill:#d86259;stroke:#ce3a2c;}.cls-18{fill:#a977b4;stroke:#9157a3;}.cls-19{fill:#5dae49;stroke:#349a46;}.cls-20{clip-path:url(#clip-path-3);}.cls-24{clip-path:url(#clip-path-4);}.cls-28{stroke-linecap:square;}.cls-29,.cls-35{stroke-width:1.24px;}.cls-30{stroke-width:1.55px;}.cls-31{stroke-width:1.57px;}.cls-32{isolation:isolate;}.cls-33{clip-path:url(#clip-path-5);}.cls-34{stroke-width:0.62px;}.cls-36{clip-path:url(#clip-path-6);}.cls-37{clip-path:url(#clip-path-7);}</style><clipPath id="clip-path"><polygon class="cls-1" points="108 9.57 67.52 18.17 34.04 42.49 13.35 78.33 9.03 119.49 21.81 158.85 49.5 189.6 87.31 206.43 128.69 206.43 166.5 189.6 194.19 158.85 206.97 119.49 202.65 78.33 181.96 42.49 148.48 18.17 108 9.57"/></clipPath><clipPath id="clip-path-2"><circle class="cls-2" cx="108.07" cy="108.12" r="72.25"/></clipPath><clipPath id="clip-path-3"><path class="cls-2" d="M128.05,113.64,174,128.55l4.15-23.81L166.58,69.1,149.71,52,130.66,75.61,116.5,94.72l2.57,3.56,5.18,8s-.44,4.6-.66,5a6,6,0,0,0-.29,1.64Z"/></clipPath><clipPath id="clip-path-4"><path class="cls-2" d="M117.59,52l-3.93,14.79,9.87,19.75c-.41.16-17.48,10.29-17.48,10.29L92.41,85.47l1.51-7,4.17-38-.1,0,9.54,1.11,10,10.46Z"/></clipPath><clipPath id="clip-path-5"><polygon class="cls-2" points="92.31 153.07 92.62 120.19 99.08 120.84 98.77 153.73 92.31 153.07"/></clipPath><clipPath id="clip-path-6"><polygon class="cls-2" points="61.08 129.45 61.1 124.9 95.12 127.88 95.1 132.43 61.08 129.45"/></clipPath><clipPath id="clip-path-7"><polygon class="cls-2" points="60.94 150.41 61.11 118.51 97.27 121.68 97.1 153.57 60.94 150.41"/></clipPath></defs><title>Infrastructure Models 2</title><g id="Layer_5" data-name="Layer 5"><polygon class="cls-3" points="108 9.57 67.52 18.17 34.04 42.49 13.35 78.33 9.03 119.49 21.81 158.85 49.5 189.6 87.31 206.43 128.69 206.43 166.5 189.6 194.19 158.85 206.97 119.49 202.65 78.33 181.96 42.49 148.48 18.17 108 9.57"/><g class="cls-4"><line class="cls-5" x1="108" y1="-0.35" x2="108" y2="27.26"/><line class="cls-5" x1="85.47" y1="2.02" x2="91.21" y2="29.03"/><line class="cls-5" x1="63.93" y1="9.02" x2="75.16" y2="34.24"/><line class="cls-5" x1="44.31" y1="20.34" x2="60.54" y2="42.68"/><line class="cls-5" x1="27.48" y1="35.5" x2="48" y2="53.98"/><line class="cls-5" x1="14.17" y1="53.83" x2="38.08" y2="67.63"/><line class="cls-5" x1="4.95" y1="74.52" x2="31.21" y2="83.05"/><line class="cls-5" x1="0.24" y1="96.67" x2="27.7" y2="99.56"/><line class="cls-5" x1="0.24" y1="119.33" x2="27.7" y2="116.44"/><line class="cls-5" x1="4.95" y1="141.48" x2="31.21" y2="132.95"/><line class="cls-5" x1="14.17" y1="162.17" x2="38.08" y2="148.37"/><line class="cls-5" x1="27.48" y1="180.5" x2="48" y2="162.02"/><line class="cls-5" x1="44.31" y1="195.66" x2="60.54" y2="173.32"/><line class="cls-5" x1="63.93" y1="206.98" x2="75.16" y2="181.76"/><line class="cls-5" x1="85.47" y1="213.98" x2="91.21" y2="186.97"/><line class="cls-5" x1="108" y1="216.35" x2="108" y2="188.74"/><line class="cls-5" x1="130.53" y1="213.98" x2="124.79" y2="186.97"/><line class="cls-5" x1="152.07" y1="206.98" x2="140.84" y2="181.76"/><line class="cls-5" x1="171.69" y1="195.66" x2="155.46" y2="173.32"/><line class="cls-5" x1="188.52" y1="180.5" x2="168" y2="162.02"/><line class="cls-5" x1="201.83" y1="162.17" x2="177.92" y2="148.37"/><line class="cls-5" x1="211.05" y1="141.48" x2="184.79" y2="132.95"/><line class="cls-5" x1="215.76" y1="119.33" x2="188.3" y2="116.44"/><line class="cls-5" x1="215.76" y1="96.67" x2="188.3" y2="99.56"/><line class="cls-5" x1="211.05" y1="74.52" x2="184.79" y2="83.05"/><line class="cls-5" x1="201.83" y1="53.83" x2="177.92" y2="67.63"/><line class="cls-5" x1="188.52" y1="35.5" x2="168" y2="53.98"/><line class="cls-5" x1="171.69" y1="20.34" x2="155.46" y2="42.68"/><line class="cls-5" x1="152.07" y1="9.02" x2="140.84" y2="34.24"/><line class="cls-5" x1="130.53" y1="2.02" x2="124.79" y2="29.03"/><circle class="cls-6" cx="108" cy="108" r="1.68"/><line class="cls-7" x1="96.94" y1="0.22" x2="99.76" y2="27.68"/><line class="cls-7" x1="74.78" y1="4.87" x2="83.24" y2="31.15"/><line class="cls-7" x1="54.06" y1="14.03" x2="67.81" y2="37.98"/><line class="cls-7" x1="35.7" y1="27.3" x2="54.13" y2="47.87"/><line class="cls-7" x1="20.5" y1="44.1" x2="42.8" y2="60.38"/><line class="cls-7" x1="9.13" y1="63.68" x2="34.32" y2="74.98"/><line class="cls-7" x1="2.07" y1="85.21" x2="29.07" y2="91.02"/><line class="cls-7" x1="-0.35" y1="107.73" x2="27.26" y2="107.8"/><line class="cls-7" x1="1.96" y1="130.26" x2="28.98" y2="124.59"/><line class="cls-7" x1="8.91" y1="151.82" x2="34.16" y2="140.66"/><line class="cls-7" x1="20.19" y1="171.47" x2="42.56" y2="155.29"/><line class="cls-7" x1="35.3" y1="188.34" x2="53.83" y2="167.87"/><line class="cls-7" x1="53.59" y1="201.7" x2="67.46" y2="177.82"/><line class="cls-7" x1="74.26" y1="210.96" x2="82.86" y2="184.72"/><line class="cls-7" x1="96.41" y1="215.73" x2="99.36" y2="188.27"/><line class="cls-7" x1="119.06" y1="215.78" x2="116.24" y2="188.32"/><line class="cls-7" x1="141.22" y1="211.13" x2="132.76" y2="184.85"/><line class="cls-7" x1="161.94" y1="201.97" x2="148.19" y2="178.02"/><line class="cls-7" x1="180.3" y1="188.7" x2="161.87" y2="168.13"/><line class="cls-7" x1="195.5" y1="171.9" x2="173.2" y2="155.62"/><line class="cls-7" x1="206.87" y1="152.32" x2="181.68" y2="141.02"/><line class="cls-7" x1="213.93" y1="130.79" x2="186.93" y2="124.98"/><line class="cls-7" x1="216.35" y1="108.27" x2="188.74" y2="108.2"/><line class="cls-7" x1="214.04" y1="85.74" x2="187.02" y2="91.41"/><line class="cls-7" x1="207.09" y1="64.18" x2="181.84" y2="75.34"/><line class="cls-7" x1="195.81" y1="44.53" x2="173.44" y2="60.71"/><line class="cls-7" x1="180.7" y1="27.66" x2="162.17" y2="48.13"/><line class="cls-7" x1="162.41" y1="14.3" x2="148.54" y2="38.18"/><line class="cls-7" x1="141.74" y1="5.04" x2="133.14" y2="31.28"/><line class="cls-7" x1="119.59" y1="0.27" x2="116.64" y2="27.73"/><circle class="cls-6" cx="108" cy="108" r="1.68"/></g><polygon class="cls-8" points="108 9.57 67.52 18.17 34.04 42.49 13.35 78.33 9.03 119.49 21.81 158.85 49.5 189.6 87.31 206.43 128.69 206.43 166.5 189.6 194.19 158.85 206.97 119.49 202.65 78.33 181.96 42.49 148.48 18.17 108 9.57"/><circle class="cls-1" cx="108.33" cy="108.58" r="90.75"/><circle class="cls-9" cx="106.9" cy="108.58" r="71.34"/><polyline class="cls-9" points="38.95 130.36 106.9 108.28 174.82 130.46"/><polyline class="cls-9" points="106.9 179.92 106.9 108.28 65.16 50.72"/><line class="cls-9" x1="148.72" y1="50.77" x2="106.9" y2="108.29"/><g class="cls-10"><path class="cls-11" d="M79.91,109.63c0,1.94-2.78,3.51-6.27,3.52s-6.12-1.43-6.38-3.25a2,2,0,0,1,0-.25v-3.07c.19-1.83,2.9-3.28,6.26-3.29s6.36,1.56,6.4,3.5Z"/><path class="cls-12" d="M78,93.75a4.5,4.5,0,0,1,.17,2.14v14c0,1.39-2,2.51-4.5,2.52s-4.58-1.12-4.61-2.51h0v-10l-1.18-.77L27.7,75.86l10.08-5.72,34.72,20,3.56,2A7,7,0,0,1,78,93.75Z"/><path class="cls-6" d="M55,78l0,0h0Z"/><path class="cls-13" d="M79.12,102.81a2.45,2.45,0,0,1,.79,1.67c0,1.93-2.78,3.5-6.27,3.51s-6.36-1.56-6.39-3.49a2.57,2.57,0,0,1,1.16-2.06"/><path class="cls-14" d="M59.56,96.88l-6-3.39c-1.91-1-1.89-4.65.05-8.07s5.06-5.33,7-4.29L68,85.32"/><line class="cls-14" x1="59.8" y1="96.93" x2="57.57" y2="95.66"/><path class="cls-13" d="M70.69,88.38A3,3,0,0,0,69.32,86c-1.91-1-5,.88-7,4.3s-2,7-.06,8.07A3.08,3.08,0,0,0,65,98.26"/><path class="cls-12" d="M64.05,70.19a2.68,2.68,0,0,0,1.68.79c1.15.13,1.62,0,4.08-.44s4.15-1.08,5.53-.71a2.65,2.65,0,0,1,1.87,2.65,2.68,2.68,0,0,1-2,2.71c-1.38.38-3.06-.29-5.53-.71s-2.93-.57-4.08-.43S64.12,75.59,64,76s0,3.55,0,3.55c0,.49-.76.88-1.7.88s-1.69-.39-1.69-.88c0,0,.06-3.06,0-3.45s-.66-1.94-1.8-2.07-1.62,0-4.08.43-4.15,1.09-5.53.71a2.68,2.68,0,0,1-2-2.71,2.65,2.65,0,0,1,1.87-2.65c1.38-.37,3,.3,5.53.71s2.93.57,4.08.44a2.68,2.68,0,0,0,1.68-.79l.11-.08a2.61,2.61,0,0,1,1.73-.65,2.64,2.64,0,0,1,1.71.63Z"/><polyline class="cls-15" points="60.14 82.79 60.14 74.32 64.27 74.32 64.27 85.13"/><circle class="cls-16" cx="62.2" cy="72.33" r="3.52"/></g><path class="cls-6" d="M30.66,74.43l.84-1.88,7.31,3.25L38,77.69Z"/><path class="cls-6" d="M36.6,69.39l4.21,2.37-1,1.8-7-3.93,1-1.85,5.6-.56-4-2.26,1-1.81,7,3.93-1,1.73Z"/><path class="cls-6" d="M38.34,60.35l3.45-4.75,1.41,1L41,59.7l1.08.78,2.19-3,1.42,1-2.19,3L46,63.39l-1.22,1.67Z"/><path class="cls-6" d="M49.68,54.56l-.71.78,2,1.82-1.39,1.53-5.91-5.4,2.7-3a2.58,2.58,0,0,1,3.84-.26,2.42,2.42,0,0,1,.7,2.8l3.27.77-1.59,1.75Zm-2.23-2.82-1.1,1.2,1.33,1.21,1.1-1.2a.92.92,0,0,0,0-1.34A.91.91,0,0,0,47.45,51.74Z"/><path class="cls-6" d="M58.75,47.93,56.24,50.1l.48,1.19L55,52.76l-3-8L54,43l7.52,4.07-1.69,1.46Zm-3.25.51L57.2,47l-3-1.72Z"/><path class="cls-6" d="M61.72,43.74a3.66,3.66,0,0,0,2.71-.57c.58-.4.77-.9.55-1.21s-.78-.24-1.59.1c-1.24.52-3,1.29-4-.28-.76-1.1-.48-2.71,1.22-3.87A4.85,4.85,0,0,1,63.9,37l-.1,1.85a3.78,3.78,0,0,0-2.33.59c-.56.39-.62.77-.43,1.05s.73.19,1.56-.17c1.24-.52,3-1.23,4,.26.9,1.33.53,2.88-1.25,4.09a4.85,4.85,0,0,1-3.64,1Z"/><path class="cls-6" d="M68.27,35.41l-2,1.06-.86-1.58,5.76-3.1.85,1.58-2,1.06L73,39.89l-1.82,1Z"/><path class="cls-6" d="M78.67,34.3l-1,.4,1,2.51L76.79,38l-3-7.42,3.71-1.5a2.58,2.58,0,0,1,3.58,1.43,2.43,2.43,0,0,1-.58,2.82l2.61,2.11-2.19.89Zm-.8-3.5-1.51.61L77,33.08l1.51-.61a.91.91,0,1,0-.68-1.67Z"/><path class="cls-6" d="M83,27l2-.54L86.26,31a1.61,1.61,0,1,0,3.12-.83l-1.21-4.53,2-.54,1.22,4.59c.51,1.93-.23,3.58-2.71,4.24s-4-.42-4.47-2.32Z"/><path class="cls-6" d="M93.66,28.5a4.06,4.06,0,0,1,3.67-4.67,3.72,3.72,0,0,1,3.81,1.65l-1.65,1.07a1.9,1.9,0,0,0-1.91-.91,2.32,2.32,0,0,0,.62,4.58,1.92,1.92,0,0,0,1.6-1.39l1.88.59A3.75,3.75,0,0,1,98.45,32,4.08,4.08,0,0,1,93.66,28.5Z"/><path class="cls-6" d="M105.46,25.08l-2.24.06,0-1.8,6.53-.15,0,1.8-2.23.05.15,6.2-2.07,0Z"/><path class="cls-6" d="M112.6,23.25l2.09.2-.43,4.67a1.61,1.61,0,1,0,3.21.29l.43-4.67,2.09.19-.43,4.74c-.18,2-1.45,3.27-4,3S112,30,112.16,28Z"/><path class="cls-6" d="M125.26,30.31l-1-.22-.58,2.65-2-.44,1.7-7.82,3.92.85a2.57,2.57,0,0,1,2.15,3.19,2.42,2.42,0,0,1-2.07,2l1,3.22-2.31-.5ZM126.57,27,125,26.62l-.38,1.76,1.59.34a.93.93,0,0,0,1.17-.66A.94.94,0,0,0,126.57,27Z"/><path class="cls-6" d="M132.88,26.77l5.56,1.88-.56,1.64-3.6-1.21-.43,1.26,3.53,1.19-.56,1.66L133.29,32l-.46,1.36,3.6,1.22-.55,1.65-5.56-1.88Z"/><path class="cls-6" d="M152.81,38.8l-4.52,3.59-.78-.47,1.05-5.67-2.78,4.63L144,39.81,148.14,33l2.45,1.47-.9,4.75,3.77-3,2.46,1.47-4.12,6.86L150,43.43Z"/><path class="cls-6" d="M161.86,42a4.15,4.15,0,1,1-5.94.52A4.07,4.07,0,0,1,161.86,42Zm-1.15,1.42a2.32,2.32,0,1,0,.22,3.17A2.17,2.17,0,0,0,160.71,43.44Z"/><path class="cls-6" d="M167.27,46.89l2.32,2.44c1.73,1.83,1.89,4.18.09,5.89s-4.16,1.45-5.89-.37l-2.32-2.44Zm-2.18,6.72a2.13,2.13,0,0,0,3.13.08,2,2,0,0,0,.07-3.11l-.9-.95-3.19,3Z"/><path class="cls-6" d="M174.4,54.74l3.53,4.68-1.39,1-2.28-3-1.07.8,2.24,3L174,62.26l-2.24-3-1.15.86,2.29,3-1.39,1L168,59.55Z"/><path class="cls-6" d="M179.61,61.94l1.07,1.77-5.3,3.22L177,69.67l-1.53.94-2.74-4.51Z"/><path class="cls-6" d="M179.12,71.74a3.62,3.62,0,0,0,.15,2.76c.3.64.75.9,1.1.73s.35-.73.15-1.58c-.33-1.31-.81-3.12.9-3.93,1.21-.58,2.75,0,3.63,1.81a4.91,4.91,0,0,1,.39,3.41l-1.82-.39a3.74,3.74,0,0,0-.22-2.39c-.29-.61-.66-.73-1-.59s-.3.69-.07,1.56c.32,1.31.75,3.13-.88,3.9-1.45.69-2.93.08-3.85-1.86a4.9,4.9,0,0,1-.37-3.75Z"/><circle class="cls-1" cx="108.07" cy="108.12" r="15.24"/><circle class="cls-17" cx="101.96" cy="112.15" r="4.38"/><circle class="cls-18" cx="113.96" cy="112.15" r="4.38"/><circle class="cls-19" cx="107.96" cy="102.13" r="4.38"/><g class="cls-20"><polygon class="cls-21" points="157.21 124.65 142.03 119.67 142.73 94.72 157.18 94.72 157.21 124.65"/><ellipse class="cls-1" cx="150.05" cy="95.5" rx="6.74" ry="4.37"/><path class="cls-22" d="M158.05,103.21V118H158c-.25,2.85-3.92,5.09-8.37,5.06s-7.92-2.27-8.17-5.06h-.07V103.21h.06c0,2.94,3.63,5.33,8.18,5.37s8.33-2.33,8.39-5.3v-.07Z"/><path class="cls-23" d="M160.9,81.76C161.35,90.31,150,94,150,94s-10.86-3.69-10.86-12.25c0-2.76,2.11-7.65,2.11-7.65s2,4.49,4,4.43c1.13,0,2.73-1.58,3.79-4.88,1.29-4,1.22-10,2.91-12.52,0,0-.19,3.9,2.72,9.48C156.49,74.08,160.6,76,160.9,81.76Z"/><path class="cls-6" d="M154.94,86.05c.2,3.91-5,5.59-5,5.59S145,90,145,86a12.41,12.41,0,0,1,1-3.5s.91,2.06,1.81,2c.52,0,1.25-.73,1.74-2.24.59-1.81.56-4.55,1.33-5.73a9.34,9.34,0,0,0,1.24,4.34C152.92,82.53,154.8,83.42,154.94,86.05Z"/></g><path class="cls-6" d="M45.57,153.74l1,1.3-3.91,3,1.54,2-1.13.85-2.53-3.33Z"/><path class="cls-6" d="M47.69,164.79l-1.76-2-.93.4-1.19-1.33,6.31-2.44L51.49,161l-3.12,6-1.18-1.32Zm-.45-2.56,1.18,1.32,1.32-2.38Z"/><path class="cls-6" d="M53.32,166.43l-2.6,2.81-1.2-1.11,4.29-4.65,1.24,1.15L54.47,169l2.47-2.67,1.21,1.12-4.3,4.64-1.16-1.07Z"/><path class="cls-6" d="M59.48,168.57l1.3,1-3,3.87,2,1.57-.87,1.12-3.31-2.57Z"/><path class="cls-6" d="M163.93,169.92l-2,1.74.39.93L161,173.77l-2.38-6.34,1.55-1.35,6,3.18-1.34,1.17Zm-2.56.42,1.33-1.17-2.37-1.35Z"/><path class="cls-6" d="M165.64,164.31l2.78,2.63-1.12,1.18-4.6-4.34,1.15-1.22,4.42.63-2.65-2.5,1.13-1.2,4.6,4.35L170.27,165Z"/><path class="cls-6" d="M171.4,160.47a2.88,2.88,0,0,0,1.91-1.08c.35-.44.38-.85.14-1s-.65,0-1.18.45c-.81.69-1.93,1.68-3.1.75-.84-.66-1-1.94,0-3.21a3.86,3.86,0,0,1,2.28-1.48l.37,1.43a2.88,2.88,0,0,0-1.62,1c-.34.43-.3.73-.08.9s.59,0,1.13-.5c.82-.69,2-1.63,3.08-.75s1.08,2,0,3.39a3.83,3.83,0,0,1-2.53,1.58Z"/><path class="cls-6" d="M171.71,153.12l.93-1.35,5.2,3.6-.93,1.35Z"/><polyline class="cls-21" points="107.29 41.95 106.33 67.78 106.08 90.88"/><polygon class="cls-21" points="116.19 66.04 106.24 55.58 96.7 54.47 116.19 66.04"/><polygon class="cls-21" points="117.07 59.61 107.11 49.14 97.58 48.04 117.07 59.61"/><polygon class="cls-21" points="117.59 52.02 107.63 41.56 98.09 40.46 117.59 52.02"/><line class="cls-21" x1="107.56" y1="66.74" x2="111.09" y2="79.3"/><line class="cls-21" x1="105.33" y1="66.79" x2="101.6" y2="80.08"/><polyline class="cls-21" points="109.72 65.8 106.33 67.78 102.99 65.8"/><g class="cls-24"><polyline class="cls-9" points="110.23 42.13 109.56 65.81 119.45 85.14 111.2 80.18 106.13 92.03 101.75 80.46 94.1 84.65 103.27 67.01 104.29 38.95"/></g><path class="cls-25" d="M36.89,155.5A85.58,85.58,0,0,1,29,76.78"/><path class="cls-25" d="M160.54,176.24a85.5,85.5,0,0,1-99.72,3.39"/><path class="cls-25" d="M187.89,77.3a85.66,85.66,0,0,1-6.48,75.6"/><path class="cls-25" d="M40.55,153.29a81.32,81.32,0,0,1-7.56-75"/><path class="cls-25" d="M157.87,172.9a81.24,81.24,0,0,1-94.92,3"/><path class="cls-25" d="M184,79a81.32,81.32,0,0,1-6.39,72"/><path class="cls-25" d="M43.77,151a77.26,77.26,0,0,1-7.35-70.61"/><path class="cls-25" d="M155.5,169.52a77.19,77.19,0,0,1-90.34,3.06"/><path class="cls-25" d="M180,80.37a77.24,77.24,0,0,1-6,68.52"/><line class="cls-9" x1="120.43" y1="142.89" x2="144.94" y2="156.66"/><line class="cls-26" x1="123.36" y1="140.75" x2="123.39" y2="143.86"/><line class="cls-26" x1="143.98" y1="151.94" x2="144.02" y2="155.05"/><line class="cls-9" x1="115.57" y1="129.08" x2="152.82" y2="150.38"/><line class="cls-26" x1="151.37" y1="145.35" x2="151.4" y2="148.46"/><line class="cls-26" x1="147.87" y1="143.24" x2="147.9" y2="146.35"/><line class="cls-26" x1="120.52" y1="127.22" x2="120.56" y2="130.33"/><line class="cls-26" x1="117.33" y1="125.87" x2="117.37" y2="128.98"/><line class="cls-21" x1="119.12" y1="132.01" x2="130.73" y2="144.16"/><line class="cls-21" x1="121.32" y1="143.68" x2="132.92" y2="155.83"/><line class="cls-21" x1="148.38" y1="148.68" x2="133.95" y2="145.29"/><line class="cls-21" x1="144.22" y1="157.2" x2="131.69" y2="154.26"/><polygon class="cls-23" points="136.45 172.91 130.65 175.3 129.69 127.75 136.37 129.28 136.45 172.91"/><ellipse class="cls-27" cx="133.12" cy="128.08" rx="3.32" ry="2.15"/><line class="cls-28" x1="72.22" y1="129.73" x2="72.22" y2="144.42"/><polygon class="cls-21" points="63.08 146.3 63.02 159.15 77.1 167.48 72.52 151.92 63.08 146.3"/><polygon class="cls-21" points="67.5 143.72 63.08 146.3 72.52 151.92 76.95 149.03 67.5 143.72"/><polygon class="cls-21" points="77.31 167.59 82 165.01 76.95 149.03 72.52 151.92 77.31 167.59"/><polyline class="cls-29" points="91.19 166.97 83.76 132.09 80.72 132.09 82 172.37"/><line class="cls-30" x1="88.8" y1="156.93" x2="81.67" y2="165.19"/><line class="cls-21" x1="81.67" y1="160.64" x2="89.32" y2="160.41"/><line class="cls-31" x1="89.66" y1="160.64" x2="81.91" y2="169.52"/><line class="cls-21" x1="82" y1="164.18" x2="90.66" y2="163.66"/><line class="cls-21" x1="87.94" y1="153" x2="82.06" y2="160.41"/><line class="cls-21" x1="82" y1="156.24" x2="88.67" y2="156.49"/><line class="cls-21" x1="87.25" y1="148.75" x2="81.47" y2="156.16"/><line class="cls-21" x1="81.41" y1="151.98" x2="88.08" y2="152.24"/><line class="cls-21" x1="86.36" y1="144.81" x2="81.24" y2="151.6"/><line class="cls-21" x1="81.46" y1="147.54" x2="87.26" y2="148.65"/><line class="cls-21" x1="81.24" y1="143.37" x2="86.52" y2="144.42"/><line class="cls-21" x1="80.93" y1="138.77" x2="85.49" y2="140.31"/><line class="cls-21" x1="84.65" y1="136.25" x2="81.07" y2="142.91"/><g class="cls-32"><g class="cls-33"><path class="cls-3" d="M94.76,121.64h-.08l-1.6.87-.19-.58h0l-.34,29.92,1.34-.8a49.22,49.22,0,0,0,4.19-19.23c.05-5.58-.94-8.06-1.78-9.16a2.33,2.33,0,0,0-1.53-1"/><path class="cls-6" d="M94.75,120.4a1.82,1.82,0,0,0-.25,0l-.12,0-1.68.9.19.58.19.58,1.6-.87h.08a2.33,2.33,0,0,1,1.53,1c.84,1.1,1.83,3.58,1.78,9.16A49.22,49.22,0,0,1,93.88,151l-1.34.8-.22.13.41,1.14,1.68-1a.51.51,0,0,0,.18-.2,49.68,49.68,0,0,0,4.39-20c0-4.89-.67-8.31-2.11-10.16a3.21,3.21,0,0,0-2.12-1.35"/></g></g><line class="cls-21" x1="85.49" y1="140.83" x2="81.24" y2="147.03"/><line class="cls-34" x1="93.42" y1="150.82" x2="94.79" y2="150.02"/><line class="cls-29" x1="95.72" y1="145.63" x2="95.72" y2="174.95"/><rect class="cls-35" x="94.49" y="157.72" width="2.74" height="6.25"/><g class="cls-32"><g class="cls-36"><path class="cls-3" d="M70.33,127a1.58,1.58,0,0,0-1.56,1.28.45.45,0,0,1-.44.35l-4.43-.43-1.29.75,17.55.57-4.61-.34-3.26-.25a.54.54,0,0,1-.42-.42A2,2,0,0,0,70.33,127"/><path class="cls-6" d="M70.33,125.71a2.34,2.34,0,0,0-2.27,1.6l-4.25-.4a.32.32,0,0,0-.21,0l-2.31,1.34a.7.7,0,0,0-.21.82.54.54,0,0,0,.41.38.39.39,0,0,0,.2-.05l.92-.54,1.29-.75,4.43.43a.45.45,0,0,0,.44-.35A1.58,1.58,0,0,1,70.33,127a2,2,0,0,1,1.54,1.51.54.54,0,0,0,.42.42l3.26.25,4.61.34,14.49,1.1c.26,0,.46-.24.46-.58a.61.61,0,0,0-.46-.66l-19.1-1.44-3-.23a2.91,2.91,0,0,0-2.25-2"/></g></g><g class="cls-32"><g class="cls-37"><path class="cls-3" d="M93.17,122.58l0,7.92v.85c0,.34-.2.6-.46.58l-19.1-1.45-3.26-.24a.54.54,0,0,1-.42-.41,2,2,0,0,0-1.54-1.52,1.59,1.59,0,0,0-1.56,1.28.44.44,0,0,1-.43.35L62,129.61v.88l4.41.43a.53.53,0,0,1,.41.41,2,2,0,0,0,1.54,1.5,1.56,1.56,0,0,0,1.53-1.2.43.43,0,0,1,.41-.32h0l22.38,2.22c.25,0,.45.32.45.66L93,150.13c.35-.92.76-2.11,1.17-3.53a50.46,50.46,0,0,0,2.1-13.93l.46,0-.46,0c0-4.83-.73-7.35-1.5-8.65a2.86,2.86,0,0,0-1.62-1.44m-.39,0h0"/><path class="cls-6" d="M92.78,122.53h0m.15-1.23h0a2,2,0,0,0-.26,0,.55.55,0,0,0-.39.58l0,8.55v.24l-18.64-1.41-3-.23a2.9,2.9,0,0,0-2.24-2,2.35,2.35,0,0,0-2.28,1.61l-4.56-.35c-.26,0-.46.25-.46.58V131a.6.6,0,0,0,.45.65l4.58.46a2.88,2.88,0,0,0,2.24,1.93,2.3,2.3,0,0,0,2.23-1.49l21.64,2.15-.09,17.79a.71.71,0,0,0,.33.63.27.27,0,0,0,.12,0,.41.41,0,0,0,.4-.26,51.45,51.45,0,0,0,4.27-20.16l-.46,0-.46,0a50.46,50.46,0,0,1-2.1,13.93c-.41,1.42-.82,2.61-1.17,3.53l.09-15.94c0-.34-.2-.64-.45-.66l-22.38-2.22h0a.43.43,0,0,0-.41.32,1.56,1.56,0,0,1-1.53,1.2,2,2,0,0,1-1.54-1.5.53.53,0,0,0-.41-.41L62,130.49v-.88l4.38.33a.44.44,0,0,0,.43-.35,1.59,1.59,0,0,1,1.56-1.28,2,2,0,0,1,1.54,1.52.54.54,0,0,0,.42.41l3.26.24,19.1,1.45c.26,0,.46-.24.46-.58v-.85l0-7.92A2.86,2.86,0,0,1,94.79,124c.77,1.3,1.52,3.82,1.5,8.65l.46,0,.46,0c0-5-.75-7.83-1.71-9.46a3.53,3.53,0,0,0-2.57-2"/></g></g><line class="cls-5" x1="68.25" y1="130.66" x2="68.25" y2="154.84"/></g></svg>